<?xml version="1.0" encoding="UTF-8"?>
<!DOCTYPE svg PUBLIC "-//W3C//DTD SVG 1.1//EN" "http://www.w3.org/Graphics/SVG/1.1/DTD/svg11.dtd">
<svg xmlns="http://www.w3.org/2000/svg" version="1.1" width="125px" height="125px" style="shape-rendering:geometricPrecision; text-rendering:geometricPrecision; image-rendering:optimizeQuality; fill-rule:evenodd; clip-rule:evenodd" xmlns:xlink="http://www.w3.org/1999/xlink">
<g><path style="opacity:1" fill="#673499" d="M 50.5,-0.5 C 58.1667,-0.5 65.8333,-0.5 73.5,-0.5C 100.833,6.16667 117.833,23.1667 124.5,50.5C 124.5,58.1667 124.5,65.8333 124.5,73.5C 117.833,100.833 100.833,117.833 73.5,124.5C 65.8333,124.5 58.1667,124.5 50.5,124.5C 23.1667,117.833 6.16667,100.833 -0.5,73.5C -0.5,65.8333 -0.5,58.1667 -0.5,50.5C 6.16667,23.1667 23.1667,6.16667 50.5,-0.5 Z"/></g>
<g><path style="opacity:1" fill="#dfdddd" d="M 62.5,31.5 C 63.1143,40.63 63.7809,49.63 64.5,58.5C 61.0242,59.6433 57.3575,59.8099 53.5,59C 54.7994,54.7543 55.4661,50.2543 55.5,45.5C 55.3333,41.1667 55.1667,36.8333 55,32.5C 54.2917,31.6195 53.4584,30.9528 52.5,30.5C 51.791,29.596 50.791,29.2627 49.5,29.5C 49.6107,28.8826 49.944,28.3826 50.5,28C 54.2613,27.2617 57.9279,27.5951 61.5,29C 62.2524,29.6708 62.5858,30.5041 62.5,31.5 Z"/></g>
<g><path style="opacity:1" fill="#dcd8dc" d="M 93.5,60.5 C 88.5,60.5 83.5,60.5 78.5,60.5C 77.4324,59.5655 76.099,59.2322 74.5,59.5C 74.8264,50.6506 74.493,41.9839 73.5,33.5C 73.5858,32.5041 73.2524,31.6708 72.5,31C 64.9343,29.9795 65.2677,28.8129 73.5,27.5C 78.176,27.1737 81.3427,29.1737 83,33.5C 83.4997,41.8267 83.6664,50.16 83.5,58.5C 86.5184,58.3354 89.5184,58.502 92.5,59C 93.056,59.3826 93.3893,59.8826 93.5,60.5 Z"/></g>
<g><path style="opacity:1" fill="#a991bf" d="M 35.5,30.5 C 35.1667,31.1667 34.8333,31.8333 34.5,32.5C 33.0222,32.762 31.6888,32.4287 30.5,31.5C 32.0453,30.5481 33.712,30.2148 35.5,30.5 Z"/></g>
<g><path style="opacity:1" fill="#dfdddd" d="M 43.5,28.5 C 44.3092,30.0276 44.9759,31.6943 45.5,33.5C 45.1739,42.0168 45.5073,50.3501 46.5,58.5C 46.5,58.8333 46.5,59.1667 46.5,59.5C 42.6494,58.9709 39.1494,59.6375 36,61.5C 35.5172,60.552 35.3505,59.552 35.5,58.5C 36.1657,54.3467 36.4991,50.0134 36.5,45.5C 36.4921,40.7784 35.8255,36.4451 34.5,32.5C 34.8333,31.8333 35.1667,31.1667 35.5,30.5C 38.1123,29.6295 40.779,28.9628 43.5,28.5 Z"/></g>
<g><path style="opacity:1" fill="#ae98c2" d="M 43.5,28.5 C 43.56,27.9569 43.8933,27.6236 44.5,27.5C 45.2811,28.7287 45.7811,30.062 46,31.5C 46.8159,30.1772 47.9826,29.5106 49.5,29.5C 50.791,29.2627 51.791,29.596 52.5,30.5C 49.5466,30.1496 47.2133,31.1496 45.5,33.5C 44.9759,31.6943 44.3092,30.0276 43.5,28.5 Z"/></g>
<g><path style="opacity:1" fill="#c2b4cc" d="M 62.5,31.5 C 63.1174,31.6107 63.6174,31.944 64,32.5C 64.4998,41.1603 64.6664,49.8269 64.5,58.5C 63.7809,49.63 63.1143,40.63 62.5,31.5 Z"/></g>
<g><path style="opacity:1" fill="#b8a7c7" d="M 73.5,33.5 C 74.493,41.9839 74.8264,50.6506 74.5,59.5C 76.099,59.2322 77.4324,59.5655 78.5,60.5C 78.5,60.8333 78.5,61.1667 78.5,61.5C 77.596,62.209 77.2627,63.209 77.5,64.5C 77.5,64.8333 77.5,65.1667 77.5,65.5C 74.2027,65.6713 73.8694,65.0046 76.5,63.5C 75.8551,62.354 75.0217,61.354 74,60.5C 73.5002,51.5062 73.3336,42.5062 73.5,33.5 Z"/></g>
<g><path style="opacity:1" fill="#827e85" d="M 90.5,47.5 C 89.8924,50.6344 88.2258,51.3011 85.5,49.5C 86.5905,46.8083 88.2572,46.1416 90.5,47.5 Z"/></g>
<g><path style="opacity:1" fill="#d8d7d9" d="M 90.5,47.5 C 90.8333,47.5 91.1667,47.5 91.5,47.5C 91.6347,49.5542 90.968,51.2209 89.5,52.5C 88.9569,52.56 88.6236,52.8933 88.5,53.5C 89.325,54.3857 90.325,54.719 91.5,54.5C 87.3046,55.9973 85.3046,54.3306 85.5,49.5C 88.2258,51.3011 89.8924,50.6344 90.5,47.5 Z"/></g>
<g><path style="opacity:1" fill="#a7a1af" d="M 91.5,47.5 C 95.2555,49.9564 95.2555,52.2897 91.5,54.5C 91.5,53.1667 90.8333,52.5 89.5,52.5C 90.968,51.2209 91.6347,49.5542 91.5,47.5 Z"/></g>
<g><path style="opacity:1" fill="#202020" d="M 89.5,52.5 C 90.8333,52.5 91.5,53.1667 91.5,54.5C 90.325,54.719 89.325,54.3857 88.5,53.5C 88.6236,52.8933 88.9569,52.56 89.5,52.5 Z"/></g>
<g><path style="opacity:1" fill="#8a65ad" d="M 35.5,58.5 C 35.3505,59.552 35.5172,60.552 36,61.5C 39.1494,59.6375 42.6494,58.9709 46.5,59.5C 46.5,60.5 46.5,61.5 46.5,62.5C 41.5,62.5 36.5,62.5 31.5,62.5C 32.7914,61.5272 32.7914,60.5272 31.5,59.5C 32.6888,58.5713 34.0222,58.238 35.5,58.5 Z"/></g>
<g><path style="opacity:1" fill="#a38abc" d="M 78.5,60.5 C 83.5,60.5 88.5,60.5 93.5,60.5C 91.5446,61.4474 91.2113,62.7807 92.5,64.5C 91.3112,65.4287 89.9778,65.762 88.5,65.5C 88.5,64.8333 88.1667,64.5 87.5,64.5C 87.3152,62.1104 85.9818,61.1104 83.5,61.5C 81.9559,61.7896 80.6226,62.4563 79.5,63.5C 78.7025,63.0431 78.3691,62.3764 78.5,61.5C 78.5,61.1667 78.5,60.8333 78.5,60.5 Z"/></g>
<g><path style="opacity:1" fill="#794ea4" d="M 78.5,61.5 C 78.3691,62.3764 78.7025,63.0431 79.5,63.5C 80.6226,62.4563 81.9559,61.7896 83.5,61.5C 85.9818,61.1104 87.3152,62.1104 87.5,64.5C 84.1667,64.5 80.8333,64.5 77.5,64.5C 77.2627,63.209 77.596,62.209 78.5,61.5 Z"/></g>
<g><path style="opacity:1" fill="#dcd9dc" d="M 31.5,64.5 C 37.357,63.281 43.357,63.281 49.5,64.5C 49.1736,73.3494 49.507,82.0161 50.5,90.5C 50.4142,91.4959 50.7476,92.3292 51.5,93C 53.5,93.3333 55.5,93.6667 57.5,94C 51.7787,97.8032 46.612,97.3032 42,92.5C 40.5863,83.5822 40.0863,74.5822 40.5,65.5C 37.5176,65.0371 34.5176,64.7038 31.5,64.5 Z"/></g>
<g><path style="opacity:1" fill="#dcd9dc" d="M 71.5,93.5 C 72.209,94.404 73.209,94.7373 74.5,94.5C 70.7519,96.966 66.7519,97.1327 62.5,95C 61.7894,93.7453 60.956,92.5786 60,91.5C 59.6667,91.8333 59.3333,92.1667 59,92.5C 59.4439,83.2505 59.6105,73.9172 59.5,64.5C 62.8499,64.335 66.1832,64.5017 69.5,65C 68.3517,73.0876 68.1851,81.2543 69,89.5C 69.2004,91.3197 70.0337,92.653 71.5,93.5 Z"/></g>
<g><path style="opacity:1" fill="#e0dddd" d="M 77.5,65.5 C 77.5,65.1667 77.5,64.8333 77.5,64.5C 80.8333,64.5 84.1667,64.5 87.5,64.5C 88.1667,64.5 88.5,64.8333 88.5,65.5C 87.8343,69.6533 87.5009,73.9866 87.5,78.5C 87.5079,83.2216 88.1745,87.5549 89.5,91.5C 88.5,92.1667 87.5,92.8333 86.5,93.5C 84.5,94.1667 82.5,94.8333 80.5,95.5C 79.6908,93.9724 79.0241,92.3057 78.5,90.5C 78.8261,81.9832 78.4927,73.6499 77.5,65.5 Z"/></g>
<g><path style="opacity:1" fill="#b6a4c6" d="M 46.5,58.5 C 49.2763,58.0889 49.943,58.9223 48.5,61C 48.6301,62.0588 49.1301,62.8921 50,63.5C 50.4998,72.4938 50.6664,81.4938 50.5,90.5C 49.507,82.0161 49.1736,73.3494 49.5,64.5C 43.357,63.281 37.357,63.281 31.5,64.5C 30.1667,63.8333 30.1667,63.1667 31.5,62.5C 36.5,62.5 41.5,62.5 46.5,62.5C 46.5,61.5 46.5,60.5 46.5,59.5C 46.5,59.1667 46.5,58.8333 46.5,58.5 Z"/></g>
<g><path style="opacity:1" fill="#b3a0c5" d="M 89.5,91.5 C 90.9778,91.238 92.3112,91.5713 93.5,92.5C 91.2573,93.4742 88.924,93.8076 86.5,93.5C 87.5,92.8333 88.5,92.1667 89.5,91.5 Z"/></g>
<g><path style="opacity:1" fill="#b5a1c5" d="M 78.5,90.5 C 79.0241,92.3057 79.6908,93.9724 80.5,95.5C 80.44,96.0431 80.1067,96.3764 79.5,96.5C 78.7189,95.2713 78.2189,93.938 78,92.5C 77.1841,93.8228 76.0174,94.4894 74.5,94.5C 73.209,94.7373 72.209,94.404 71.5,93.5C 74.4534,93.8504 76.7867,92.8504 78.5,90.5 Z"/></g>
</svg>
